<svg width="21" height="30" viewBox="0 0 21 30" fill="none" xmlns="http://www.w3.org/2000/svg">
  <g clip-path="url(#clip0)">
    <path d="M14.2219 15L20.0854 9.13652C20.8049 8.41699 20.8049 7.25039 20.0854 6.53027L18.7822 5.22715C18.0627 4.50762 16.8961 4.50762 16.176 5.22715L10.3125 11.0906L4.44902 5.22715C3.72949 4.50762 2.56289 4.50762 1.84277 5.22715L0.539648 6.53027C-0.179883 7.2498 -0.179883 8.41641 0.539648 9.13652L6.40312 15L0.539648 20.8635C-0.179883 21.583 -0.179883 22.7496 0.539648 23.4697L1.84277 24.7729C2.5623 25.4924 3.72949 25.4924 4.44902 24.7729L10.3125 18.9094L16.176 24.7729C16.8955 25.4924 18.0627 25.4924 18.7822 24.7729L20.0854 23.4697C20.8049 22.7502 20.8049 21.5836 20.0854 20.8635L14.2219 15Z" fill="white"/>
  </g>
  <defs>
    <clipPath id="clip0">
      <rect width="20.625" height="30" fill="white"/>
    </clipPath>
  </defs>
</svg>
