<svg width="15" height="15" viewBox="0 0 15 15" fill="none" xmlns="http://www.w3.org/2000/svg">
  <g clip-path="url(#clip0)">
    <path d="M14.587 4.16309L13.2364 5.51368C13.0987 5.65137 12.876 5.65137 12.7383 5.51368L9.48637 2.26172C9.34867 2.12403 9.34867 1.90137 9.48637 1.76367L10.837 0.413086C11.3848 -0.134766 12.2754 -0.134766 12.8262 0.413086L14.587 2.17383C15.1377 2.72168 15.1377 3.61231 14.587 4.16309ZM8.32621 2.92383L0.632851 10.6172L0.011757 14.1768C-0.073204 14.6572 0.345741 15.0733 0.82621 14.9912L4.38578 14.3672L12.0791 6.67384C12.2168 6.53614 12.2168 6.31348 12.0791 6.17579L8.82719 2.92383C8.68656 2.78614 8.46391 2.78614 8.32621 2.92383ZM3.63578 9.95802C3.47465 9.79689 3.47465 9.53907 3.63578 9.37794L8.1475 4.86622C8.30863 4.70508 8.56644 4.70508 8.72758 4.86622C8.88871 5.02735 8.88871 5.28516 8.72758 5.4463L4.21586 9.95802C4.05473 10.1192 3.79691 10.1192 3.63578 9.95802ZM2.57816 12.4219H3.98441V13.4854L2.09476 13.8164L1.18363 12.9053L1.51469 11.0156H2.57816V12.4219Z" fill="black"/>
  </g>
  <defs>
    <clipPath id="clip0">
      <rect width="15" height="15" fill="white"/>
    </clipPath>
  </defs>
</svg>
