<svg width="15" height="15" viewBox="0 0 15 15" fill="none" xmlns="http://www.w3.org/2000/svg">
  <g clip-path="url(#clip0)">
    <path d="M7.5 4.6875C5.9502 4.6875 4.6875 5.9502 4.6875 7.5C4.6875 9.0498 5.9502 10.3125 7.5 10.3125C9.0498 10.3125 10.3125 9.0498 10.3125 7.5C10.3125 5.9502 9.0498 4.6875 7.5 4.6875ZM14.7188 7.0459L11.9443 5.66016L12.9258 2.71875C13.0576 2.32031 12.6797 1.94238 12.2842 2.07715L9.34277 3.05859L7.9541 0.28125C7.7666 -0.09375 7.2334 -0.09375 7.0459 0.28125L5.66016 3.05566L2.71582 2.07422C2.31738 1.94238 1.93945 2.32031 2.07422 2.71582L3.05566 5.65723L0.28125 7.0459C-0.09375 7.2334 -0.09375 7.7666 0.28125 7.9541L3.05566 9.33984L2.07422 12.2842C1.94238 12.6826 2.32031 13.0605 2.71582 12.9258L5.65723 11.9443L7.04297 14.7188C7.23047 15.0938 7.76367 15.0938 7.95117 14.7188L9.33691 11.9443L12.2783 12.9258C12.6768 13.0576 13.0547 12.6797 12.9199 12.2842L11.9385 9.34277L14.7129 7.95703C15.0938 7.7666 15.0938 7.2334 14.7188 7.0459ZM10.1514 10.1514C8.68945 11.6133 6.31055 11.6133 4.84863 10.1514C3.38672 8.68945 3.38672 6.31055 4.84863 4.84863C6.31055 3.38672 8.68945 3.38672 10.1514 4.84863C11.6133 6.31055 11.6133 8.68945 10.1514 10.1514Z" fill="black"/>
  </g>
  <defs>
    <clipPath id="clip0">
      <rect width="15" height="15" fill="white"/>
    </clipPath>
  </defs>
</svg>
