<svg width="14" height="20" viewBox="0 0 14 20" fill="none" xmlns="http://www.w3.org/2000/svg">
  <g clip-path="url(#clip0)">
    <path d="M7.77541 0.929034L7.77537 0.929046L7.77672 0.933615C8.65999 3.91256 10.0168 5.85135 11.1808 7.51475C11.2433 7.60404 11.3052 7.69254 11.3665 7.78036C12.5708 9.50642 13.5 10.9462 13.5 13.043C13.5 16.7531 10.5342 19.7497 6.875 19.7497C3.21584 19.7497 0.25 16.7531 0.25 13.043C0.25 10.9572 1.18129 9.51047 2.3869 7.77775C2.44867 7.68898 2.5111 7.59953 2.57409 7.50927C3.7386 5.84071 5.09438 3.89808 5.97321 0.933863C6.25208 0.00136756 7.53114 0.0436182 7.77541 0.929034ZM2.25 13.1247C2.25 15.6749 4.32482 17.7497 6.875 17.7497C7.35838 17.7497 7.75 17.3581 7.75 16.8747C7.75 16.3913 7.35838 15.9997 6.875 15.9997C5.29002 15.9997 4 14.7096 4 13.1247C4 12.6413 3.60838 12.2497 3.125 12.2497C2.64162 12.2497 2.25 12.6413 2.25 13.1247Z" fill="white" stroke="black" stroke-width="0.5"/>
  </g>
  <defs>
    <clipPath id="clip0">
      <rect width="13.75" height="20" fill="white"/>
    </clipPath>
  </defs>
</svg>
